solid Exported from Blender-2.79 (sub 0)
facet normal 1.000000 0.000000 0.000000
outer loop
vertex 0.322792 -0.322792 -0.322792
vertex 0.322792 0.322792 -0.322792
vertex 0.322792 0.322792 0.322792
endloop
endfacet
facet normal 1.000000 0.000000 0.000000
outer loop
vertex 0.322792 0.322792 0.322792
vertex 0.322792 -0.322792 0.322792
vertex 0.322792 -0.322792 -0.322792
endloop
endfacet
facet normal 0.000000 0.000000 1.000000
outer loop
vertex 0.322792 -0.322792 0.322792
vertex 0.322792 0.322792 0.322792
vertex -0.322792 0.322792 0.322792
endloop
endfacet
facet normal 0.000000 0.000000 1.000000
outer loop
vertex -0.322792 0.322792 0.322792
vertex -0.322792 -0.322792 0.322792
vertex 0.322792 -0.322792 0.322792
endloop
endfacet
facet normal -1.000000 0.000000 0.000000
outer loop
vertex -0.322792 -0.322792 0.322792
vertex -0.322792 0.322792 0.322792
vertex -0.322792 0.322792 -0.322792
endloop
endfacet
facet normal -1.000000 0.000000 0.000000
outer loop
vertex -0.322792 0.322792 -0.322792
vertex -0.322792 -0.322792 -0.322792
vertex -0.322792 -0.322792 0.322792
endloop
endfacet
facet normal 0.000000 0.000000 -1.000000
outer loop
vertex 0.322792 0.322792 -0.322792
vertex 0.322792 -0.322792 -0.322792
vertex -0.322792 -0.322792 -0.322792
endloop
endfacet
facet normal 0.000000 0.000000 -1.000000
outer loop
vertex -0.322792 -0.322792 -0.322792
vertex -0.322792 0.322792 -0.322792
vertex 0.322792 0.322792 -0.322792
endloop
endfacet
facet normal 0.000000 -1.000000 0.000000
outer loop
vertex -0.322792 -0.322792 -0.322792
vertex 0.322792 -0.322792 -0.322792
vertex 0.322792 -0.322792 0.322792
endloop
endfacet
facet normal 0.000000 -1.000000 0.000000
outer loop
vertex 0.322792 -0.322792 0.322792
vertex -0.322792 -0.322792 0.322792
vertex -0.322792 -0.322792 -0.322792
endloop
endfacet
facet normal 0.000000 0.000000 1.000000
outer loop
vertex -0.322792 0.322792 0.322792
vertex 0.322792 0.322792 0.322792
vertex 0.322792 0.764794 0.322792
endloop
endfacet
facet normal 0.000000 0.000000 1.000000
outer loop
vertex 0.322792 0.764794 0.322792
vertex -0.322792 0.764794 0.322792
vertex -0.322792 0.322792 0.322792
endloop
endfacet
facet normal 0.000000 1.000000 0.000000
outer loop
vertex -0.322792 0.764794 0.322792
vertex 0.322792 0.764794 0.322792
vertex 0.322792 0.764794 -0.322792
endloop
endfacet
facet normal 0.000000 1.000000 0.000000
outer loop
vertex 0.322792 0.764794 -0.322792
vertex -0.322792 0.764794 -0.322792
vertex -0.322792 0.764794 0.322792
endloop
endfacet
facet normal 0.000000 0.000000 -1.000000
outer loop
vertex -0.322792 0.764794 -0.322792
vertex -0.322792 0.322792 -0.322792
vertex -0.906614 0.322792 -0.322792
endloop
endfacet
facet normal 0.000000 0.000000 -1.000000
outer loop
vertex -0.906614 0.322792 -0.322792
vertex -0.906614 0.764794 -0.322792
vertex -0.322792 0.764794 -0.322792
endloop
endfacet
facet normal 0.000000 0.000000 1.000000
outer loop
vertex 0.322792 0.764794 0.322792
vertex 0.322792 0.322792 0.322792
vertex 0.882715 0.322792 0.322792
endloop
endfacet
facet normal 0.000000 0.000000 1.000000
outer loop
vertex 0.882715 0.322792 0.322792
vertex 0.882715 0.764794 0.322792
vertex 0.322792 0.764794 0.322792
endloop
endfacet
facet normal 0.000000 0.000000 -1.000000
outer loop
vertex 0.322792 0.322792 -0.322792
vertex -0.322792 0.322792 -0.322792
vertex -0.322792 0.764794 -0.322792
endloop
endfacet
facet normal 0.000000 0.000000 -1.000000
outer loop
vertex -0.322792 0.764794 -0.322792
vertex 0.322792 0.764794 -0.322792
vertex 0.322792 0.322792 -0.322792
endloop
endfacet
facet normal -1.000000 0.000000 0.000000
outer loop
vertex -0.906614 0.322792 -0.322792
vertex -0.906614 0.322792 0.322792
vertex -0.906614 0.764794 0.322792
endloop
endfacet
facet normal -1.000000 0.000000 0.000000
outer loop
vertex -0.906614 0.764794 0.322792
vertex -0.906614 0.764794 -0.322792
vertex -0.906614 0.322792 -0.322792
endloop
endfacet
facet normal 0.000000 1.000000 0.000000
outer loop
vertex -0.322792 0.764794 0.322792
vertex -0.322792 0.764794 -0.322792
vertex -0.906614 0.764794 -0.322792
endloop
endfacet
facet normal 0.000000 1.000000 0.000000
outer loop
vertex -0.906614 0.764794 -0.322792
vertex -0.906614 0.764794 0.322792
vertex -0.322792 0.764794 0.322792
endloop
endfacet
facet normal 0.000000 -1.000000 0.000000
outer loop
vertex -0.322792 0.322792 -0.322792
vertex -0.322792 0.322792 0.322792
vertex -0.906614 0.322792 0.322792
endloop
endfacet
facet normal 0.000000 -1.000000 0.000000
outer loop
vertex -0.906614 0.322792 0.322792
vertex -0.906614 0.322792 -0.322792
vertex -0.322792 0.322792 -0.322792
endloop
endfacet
facet normal 0.000000 0.000000 1.000000
outer loop
vertex -0.322792 0.322792 0.322792
vertex -0.322792 0.764794 0.322792
vertex -0.906614 0.764794 0.322792
endloop
endfacet
facet normal 0.000000 0.000000 1.000000
outer loop
vertex -0.906614 0.764794 0.322792
vertex -0.906614 0.322792 0.322792
vertex -0.322792 0.322792 0.322792
endloop
endfacet
facet normal 1.000000 0.000000 0.000000
outer loop
vertex 0.882715 0.322792 0.322792
vertex 0.882715 0.322792 -0.322792
vertex 0.882715 0.764794 -0.322792
endloop
endfacet
facet normal 1.000000 0.000000 0.000000
outer loop
vertex 0.882715 0.764794 -0.322792
vertex 0.882715 0.764794 0.322792
vertex 0.882715 0.322792 0.322792
endloop
endfacet
facet normal 0.000000 1.000000 0.000000
outer loop
vertex 0.322792 0.764794 -0.322792
vertex 0.322792 0.764794 0.322792
vertex 0.882715 0.764794 0.322792
endloop
endfacet
facet normal 0.000000 1.000000 0.000000
outer loop
vertex 0.882715 0.764794 0.322792
vertex 0.882715 0.764794 -0.322792
vertex 0.322792 0.764794 -0.322792
endloop
endfacet
facet normal 0.000000 0.000000 -1.000000
outer loop
vertex 0.322792 0.322792 -0.322792
vertex 0.322792 0.764794 -0.322792
vertex 0.882715 0.764794 -0.322792
endloop
endfacet
facet normal 0.000000 0.000000 -1.000000
outer loop
vertex 0.882715 0.764794 -0.322792
vertex 0.882715 0.322792 -0.322792
vertex 0.322792 0.322792 -0.322792
endloop
endfacet
facet normal 0.000000 -1.000000 0.000000
outer loop
vertex 0.322792 0.322792 0.322792
vertex 0.322792 0.322792 -0.322792
vertex 0.882715 0.322792 -0.322792
endloop
endfacet
facet normal 0.000000 -1.000000 0.000000
outer loop
vertex 0.882715 0.322792 -0.322792
vertex 0.882715 0.322792 0.322792
vertex 0.322792 0.322792 0.322792
endloop
endfacet
endsolid Exported from Blender-2.79 (sub 0)
